HIERARCHY
ROOT hip
{
  OFFSET 2.90874 81.5367 -34.308
  CHANNELS 6 Xposition Yposition Zposition Zrotation Xrotation Yrotation
  JOINT abdomen
  {
    OFFSET 0 20.6881 -0.73152
    CHANNELS 3 Zrotation Xrotation Yrotation
    JOINT chest
    {
      OFFSET 0 11.7043 -0.48768
      CHANNELS 3 Zrotation Xrotation Yrotation
      JOINT neck
      {
        OFFSET 0 22.1894 -2.19456
        CHANNELS 3 Zrotation Xrotation Yrotation
        JOINT head
        {
          OFFSET -0.24384 7.07133 1.2192
          CHANNELS 3 Zrotation Xrotation Yrotation
          JOINT leftEye
          {
            OFFSET 4.14528 8.04674 8.04672
            CHANNELS 3 Zrotation Xrotation Yrotation
            End Site
            {
              OFFSET 1 0 0
            }
          }
          JOINT rightEye
          {
            OFFSET -3.6576 8.04674 8.04672
            CHANNELS 3 Zrotation Xrotation Yrotation
            End Site
            {
              OFFSET 1 0 0
            }
          }
        }
      }
      JOINT rCollar
      {
        OFFSET -2.68224 19.2634 -4.8768
        CHANNELS 3 Zrotation Xrotation Yrotation
        JOINT rShldr
        {
          OFFSET -8.77824 -1.95073 1.46304
          CHANNELS 3 Zrotation Xrotation Yrotation
          JOINT rForeArm
          {
            OFFSET -28.1742 -1.7115 0.48768
            CHANNELS 3 Zrotation Xrotation Yrotation
            JOINT rHand
            {
              OFFSET -22.5879 0.773209 7.07136
              CHANNELS 3 Zrotation Xrotation Yrotation
              JOINT rThumb1
              {
                OFFSET -1.2192 -0.487915 3.41376
                CHANNELS 3 Zrotation Xrotation Yrotation
                JOINT rThumb2
                {
                  OFFSET -3.37035 -0.52449 3.41376
                  CHANNELS 3 Zrotation Xrotation Yrotation
                  End Site
                  {
                    OFFSET -1.78271 -1.18214 1.43049
                  }
                }
              }
              JOINT rIndex1
              {
                OFFSET -7.75947 0.938293 5.60832
                CHANNELS 3 Zrotation Xrotation Yrotation
                JOINT rIndex2
                {
                  OFFSET -2.54057 -0.884171 1.56538
                  CHANNELS 3 Zrotation Xrotation Yrotation
                  End Site
                  {
                    OFFSET -1.62519 -0.234802 1.16502
                  }
                }
              }
              JOINT rMid1
              {
                OFFSET -8.24714 1.18213 3.41376
                CHANNELS 3 Zrotation Xrotation Yrotation
                JOINT rMid2
                {
                  OFFSET -3.10165 -0.590103 1.0647
                  CHANNELS 3 Zrotation Xrotation Yrotation
                  End Site
                  {
                    OFFSET -2.48547 -0.328903 0.83742
                  }
                }
              }
              JOINT rRing1
              {
                OFFSET -8.82822 0.546677 1.51678
                CHANNELS 3 Zrotation Xrotation Yrotation
                JOINT rRing2
                {
                  OFFSET -2.60934 -0.819778 -0.0198488
                  CHANNELS 3 Zrotation Xrotation Yrotation
                  End Site
                  {
                    OFFSET -2.33842 -0.294052 0.168128
                  }
                }
              }
              JOINT rPinky1
              {
                OFFSET -8.27202 -0.0477905 -0.4584
                CHANNELS 3 Zrotation Xrotation Yrotation
                JOINT rPinky2
                {
                  OFFSET -1.82734 -0.647385 -0.700984
                  CHANNELS 3 Zrotation Xrotation Yrotation
                  End Site
                  {
                    OFFSET -1.69225 -0.51767 -0.607171
                  }
                }
              }
            }
          }
        }
      }
      JOINT lCollar
      {
        OFFSET 2.68224 19.2634 -4.8768
        CHANNELS 3 Zrotation Xrotation Yrotation
        JOINT lShldr
        {
          OFFSET 8.77824 -1.95073 1.46304
          CHANNELS 3 Zrotation Xrotation Yrotation
          JOINT lForeArm
          {
            OFFSET 28.1742 -1.7115 0.48768
            CHANNELS 3 Zrotation Xrotation Yrotation
            JOINT lHand
            {
              OFFSET 22.5879 0.773209 7.07136
              CHANNELS 3 Zrotation Xrotation Yrotation
              JOINT lThumb1
              {
                OFFSET 1.2192 -0.487915 3.41376
                CHANNELS 3 Zrotation Xrotation Yrotation
                JOINT lThumb2
                {
                  OFFSET 3.37035 -0.52449 3.41376
                  CHANNELS 3 Zrotation Xrotation Yrotation
                  End Site
                  {
                    OFFSET 1.78271 -1.18214 1.43049
                  }
                }
              }
              JOINT lIndex1
              {
                OFFSET 7.75947 0.938293 5.60832
                CHANNELS 3 Zrotation Xrotation Yrotation
                JOINT lIndex2
                {
                  OFFSET 2.54057 -0.884171 1.56538
                  CHANNELS 3 Zrotation Xrotation Yrotation
                  End Site
                  {
                    OFFSET 1.62519 -0.234802 1.16502
                  }
                }
              }
              JOINT lMid1
              {
                OFFSET 8.24714 1.18213 3.41376
                CHANNELS 3 Zrotation Xrotation Yrotation
                JOINT lMid2
                {
                  OFFSET 3.10165 -0.590103 1.0647
                  CHANNELS 3 Zrotation Xrotation Yrotation
                  End Site
                  {
                    OFFSET 2.48547 -0.328903 0.83742
                  }
                }
              }
              JOINT lRing1
              {
                OFFSET 8.82822 0.546677 1.51678
                CHANNELS 3 Zrotation Xrotation Yrotation
                JOINT lRing2
                {
                  OFFSET 2.60934 -0.819778 -0.0198488
                  CHANNELS 3 Zrotation Xrotation Yrotation
                  End Site
                  {
                    OFFSET 2.33842 -0.294052 0.168128
                  }
                }
              }
              JOINT lPinky1
              {
                OFFSET 8.27202 -0.0477905 -0.4584
                CHANNELS 3 Zrotation Xrotation Yrotation
                JOINT lPinky2
                {
                  OFFSET 1.82734 -0.647385 -0.700984
                  CHANNELS 3 Zrotation Xrotation Yrotation
                  End Site
                  {
                    OFFSET 1.69225 -0.51767 -0.607171
                  }
                }
              }
            }
          }
        }
      }
    }
  }
  JOINT rButtock
  {
    OFFSET -8.77824 4.35084 1.2192
    CHANNELS 3 Zrotation Xrotation Yrotation
    JOINT rThigh
    {
      OFFSET 0 -1.70687 -2.19456
      CHANNELS 3 Zrotation Xrotation Yrotation
      JOINT rShin
      {
        OFFSET 0 -36.8199 0.73152
        CHANNELS 3 Zrotation Xrotation Yrotation
        JOINT rFoot
        {
          OFFSET 0.73152 -45.1104 -5.12064
          CHANNELS 3 Zrotation Xrotation Yrotation
          End Site
          {
            OFFSET -1.1221 -3.69964 12.103
          }
        }
      }
    }
  }
  JOINT lButtock
  {
    OFFSET 8.77824 4.35084 1.2192
    CHANNELS 3 Zrotation Xrotation Yrotation
    JOINT lThigh
    {
      OFFSET 0 -1.70687 -2.19456
      CHANNELS 3 Zrotation Xrotation Yrotation
      JOINT lShin
      {
        OFFSET 0 -36.8199 0.73152
        CHANNELS 3 Zrotation Xrotation Yrotation
        JOINT lFoot
        {
          OFFSET -0.73152 -45.1104 -5.12064
          CHANNELS 3 Zrotation Xrotation Yrotation
          End Site
          {
            OFFSET 1.1221 -3.69964 12.103
          }
        }
      }
    }
  }
}
MOTION
Frames:	5
Frame Time:	0.00833333
3.16756 84.4717 -36.3416 0.658809 -0.000404928 -0.0118334 -0.866758 -0.00431961 -0.0241681 -0.239132 -0.00521588 -0.0414316 -2.52475e-014 0 -1.98785e-016 -7.5737e-014 3.18055e-015 -6.08778e-016 -0 0 0 -0 0 0 -1.26246e-014 -6.21202e-018 4.96962e-017 -2.64493e-013 8.07563e-017 -2.38542e-015 -4.56077e-012 1.36525e-012 1.27222e-014 -5.22473e-011 -1.38707e-012 -5.69319e-013 -1.23238e-010 -4.80295e-014 -1.16408e-012 -2.12835e-010 -7.95139e-014 -2.00136e-012 -1.23235e-010 -4.92986e-014 -1.17044e-012 7.73091 5.47488 0.417314 -1.2324e-010 -4.82053e-014 -1.15772e-012 2.90554 0.965183 0.102902 -1.23237e-010 -4.82053e-014 -1.15931e-012 10.2786 0.731801 0.0259123 -1.23247e-010 -4.45278e-014 -1.15454e-012 2.22167 -0.733487 -0.20892 -1.27213e-014 -6.21202e-018 -2.48481e-016 -2.6682e-013 6.21202e-018 -3.77691e-015 -4.56693e-012 -1.37002e-012 -2.54444e-014 -5.22493e-011 1.34637e-012 -5.08889e-013 -1.23246e-010 -5.4659e-014 -1.15454e-012 -2.12831e-010 -1.01778e-013 -1.9958e-012 -1.23247e-010 -5.56597e-014 -1.13864e-012 -7.73091 5.47488 -0.417314 -1.23245e-010 -5.50634e-014 -1.15772e-012 -2.90554 0.965183 -0.102902 -1.23249e-010 -5.46658e-014 -1.15852e-012 -10.2786 0.731801 -0.0259123 -1.23239e-010 -5.32743e-014 -1.17044e-012 -2.22167 -0.733487 0.20892 -2.03217e-016 0 -3.88251e-019 -0.160035 -2.01042 -0.0151118 -0.00904971 -1.91209 -0.0754262 -0.496583 3.92185 0.136473 2.03217e-016 0 3.88251e-019 -1.1591 -5.20618 0.100034 0.00047974 3.87662 -0.0145409 0.508686 1.32902 -0.0850898 
3.43113 81.7848 -41.0061 1.04819 5.38618 -0.730749 -1.27937 -6.24478 -0.57909 0.516382 1.18961 -0.189225 -0.268042 2.71263 -0.373686 0.0612519 -4.78296 -0.708085 -0 0 0 -0 0 0 -4.28702e-015 1.46492e-013 -1.41273e-014 22.4081 8.66484 0.43456 -3.15199 -1.27023 5.08502 0.0122097 2.45155 0.343404 5.9498e-010 5.56326e-011 -7.70946e-010 1.02125e-009 1.02681e-010 -1.3372e-009 5.94985e-010 5.56293e-011 -7.70952e-010 7.73091 5.47488 0.417314 5.9498e-010 5.56297e-011 -7.70942e-010 2.90554 0.965183 0.102902 5.94983e-010 5.56294e-011 -7.70942e-010 10.2786 0.731801 0.0259123 5.94972e-010 5.56329e-011 -7.70937e-010 2.22167 -0.733487 -0.20892 -4.35107e-015 1.46492e-013 -1.43789e-014 -22.5951 9.62524 -0.135097 3.31177 -1.36069 -5.31876 -0.0234967 3.40141 -0.474999 -8.57717e-010 -1.14914e-010 5.99665e-010 -1.47467e-009 -1.88632e-010 1.04421e-009 -8.57719e-010 -1.14915e-010 5.99679e-010 -7.73091 5.47488 -0.417314 -8.57717e-010 -1.14917e-010 5.99656e-010 -2.90554 0.965183 -0.102902 -8.57719e-010 -1.14915e-010 5.99663e-010 -10.2786 0.731801 -0.0259123 -8.57712e-010 -1.14914e-010 5.99651e-010 -2.22167 -0.733487 0.20892 -2.03217e-016 0 -3.88251e-019 -0.385662 -11.2629 -3.34144 0.0137999 8.37367 0.0892961 -0.486265 -2.91118 -0.115078 2.03217e-016 0 3.88251e-019 -1.64989 -13.5959 2.53664 -0.00561592 12.5675 -0.152579 0.587915 -4.09165 0.619349 
3.41093 81.7854 -41.0031 1.61064 11.0778 -1.51437 -1.8526 -12.8395 -1.18739 1.32348 2.45207 -0.345323 -0.513405 5.58027 -0.77177 -0.00464268 -9.83448 -1.47357 -0 0 0 -0 0 0 3.72932e-015 3.1578e-013 -3.03426e-014 45.9466 17.8206 0.929159 -6.23823 -2.57864 10.4657 -0.00695688 5.04549 0.708892 1.44244e-009 1.08549e-010 -1.66108e-009 2.47759e-009 2.01762e-010 -2.88134e-009 1.44245e-009 1.08543e-010 -1.66109e-009 7.73091 5.47488 0.417314 1.44244e-009 1.08543e-010 -1.66108e-009 2.90554 0.965183 0.102902 1.44245e-009 1.08542e-010 -1.66108e-009 10.2786 0.731801 0.0259123 1.44243e-009 1.08546e-010 -1.66107e-009 2.22167 -0.733487 -0.20892 3.70051e-015 3.15779e-013 -3.05414e-014 -46.4303 19.8006 -0.289755 6.54003 -2.76044 -10.9521 0.0133918 6.9929 -0.982246 -1.71334e-009 -2.38485e-010 1.31189e-009 -2.94454e-009 -3.90525e-010 2.28423e-009 -1.71334e-009 -2.38484e-010 1.31191e-009 -7.73091 5.47488 -0.417314 -1.71334e-009 -2.3849e-010 1.31188e-009 -2.90554 0.965183 -0.102902 -1.71334e-009 -2.38485e-010 1.31189e-009 -10.2786 0.731801 -0.0259123 -1.71334e-009 -2.38485e-010 1.31188e-009 -2.22167 -0.733487 0.20892 -2.03217e-016 0 -3.88251e-019 -1.86575 -20.9315 -7.19692 -0.029255 19.247 0.276989 -0.542798 -10.1335 -0.392999 2.03217e-016 0 3.88251e-019 -1.33468 -22.4024 5.37205 0.0368068 21.7544 -0.313287 0.818653 -9.81807 1.38209 
3.39321 81.7852 -41.0001 2.2466 16.1489 -2.24763 -2.48457 -18.7183 -1.7724 2.04593 3.57917 -0.485637 -0.697062 8.1365 -1.13119 -0.180519 -14.34 -2.18496 -0 0 0 -0 0 0 1.23881e-014 4.3949e-013 -4.24813e-014 66.7922 25.9882 1.43381 -8.78728 -3.69081 15.2838 -0.0521487 7.35357 1.0378 2.03142e-009 1.66994e-010 -2.31051e-009 3.48941e-009 3.08203e-010 -4.00761e-009 2.03142e-009 1.66986e-010 -2.31051e-009 7.73091 5.47488 0.417314 2.03142e-009 1.66986e-010 -2.31051e-009 2.90554 0.965183 0.102902 2.03142e-009 1.66985e-010 -2.31051e-009 10.2786 0.731801 0.0259123 2.03141e-009 1.66988e-010 -2.3105e-009 2.22167 -0.733487 -0.20892 1.23893e-014 4.39488e-013 -4.26397e-014 -67.6327 28.875 -0.456318 9.18681 -3.94158 -15.9906 0.100997 10.2014 -1.44534 -2.32666e-009 -3.44634e-010 1.8013e-009 -3.99835e-009 -5.65693e-010 3.13662e-009 -2.32666e-009 -3.44633e-010 1.80132e-009 -7.73091 5.47488 -0.417314 -2.32666e-009 -3.44641e-010 1.80128e-009 -2.90554 0.965183 -0.102902 -2.32666e-009 -3.44634e-010 1.80131e-009 -10.2786 0.731801 -0.0259123 -2.32666e-009 -3.44635e-010 1.8013e-009 -2.22167 -0.733487 0.20892 -2.03217e-016 0 -3.88251e-019 -4.45139 -29.3456 -11.2612 -0.136482 28.9444 0.475154 -0.650458 -16.5763 -0.643853 2.03217e-016 0 3.88251e-019 -0.197032 -30.1492 8.3307 0.125256 29.9486 -0.482134 1.15729 -14.9242 2.09412 
3.3788 81.785 -40.9946 2.76319 19.6786 -2.77941 -2.99042 -22.8142 -2.22055 2.54377 4.36796 -0.585722 -0.802486 9.91556 -1.38428 -0.370866 -17.4889 -2.70346 -0 0 0 -0 0 0 2.26532e-014 4.49254e-013 -4.44284e-014 81.2233 31.6912 1.8407 -10.4604 -4.42598 18.6678 -0.0992185 8.94803 1.26799 1.97418e-009 2.3926e-010 -2.35817e-009 3.38996e-009 4.33045e-010 -4.0892e-009 1.97419e-009 2.39253e-010 -2.35817e-009 7.73091 5.47488 0.417314 1.97419e-009 2.39252e-010 -2.35817e-009 2.90554 0.965183 0.102902 1.97419e-009 2.39251e-010 -2.35817e-009 10.2786 0.731801 0.0259123 1.97418e-009 2.39254e-010 -2.35816e-009 2.22167 -0.733487 -0.20892 2.26712e-014 4.49253e-013 -4.45775e-014 -82.3625 35.1977 -0.606218 10.9046 -4.71017 -19.5094 0.194125 12.4551 -1.77884 -2.33421e-009 -4.07232e-010 1.73367e-009 -4.01198e-009 -6.74049e-010 3.01993e-009 -2.33422e-009 -4.07229e-010 1.73368e-009 -7.73091 5.47488 -0.417314 -2.33422e-009 -4.0724e-010 1.73364e-009 -2.90554 0.965183 -0.102902 -2.33421e-009 -4.07232e-010 1.73367e-009 -10.2786 0.731801 -0.0259123 -2.33421e-009 -4.07232e-010 1.73366e-009 -2.22167 -0.733487 0.20892 -2.03217e-016 0 -3.88251e-019 -7.13249 -35.0134 -14.6787 -0.260462 35.7024 0.643952 -0.745892 -21.0716 -0.796283 2.03217e-016 0 3.88251e-019 1.18968 -35.453 10.7732 0.222677 35.6615 -0.623237 1.47094 -18.4883 2.61386 
